# This file uses centimeters as units for non-parametric coordinates.

mtllib leaf.mtl
g default
v -0.669570 1.003154 0.444401
v 0.698759 0.997311 0.452740
v -0.563024 1.003154 0.573665
v 0.005893 1.003154 -1.015663
v 0.001723 0.703990 0.490269
v 0.670806 0.999077 0.582004
v 0.278295 1.003154 -0.586174
v 0.374201 0.908823 0.627872
v -0.360784 1.003154 -0.561156
v -0.327426 0.894578 0.540306
v -0.890569 1.003154 0.364092
v 0.857211 1.003154 0.293206
v 0.549882 0.902117 0.305715
v 0.374201 0.787318 0.309885
v 0.035081 0.700154 0.312808
v -0.327426 0.811341 0.309885
v -0.596383 0.988398 0.309885
v -0.878060 1.003154 -0.414313
v 0.882230 1.003154 -0.372615
v 0.466486 0.997754 -0.205823
v 0.411729 1.003154 -0.510219
v 0.035081 1.003154 -0.426823
v -0.327426 1.003154 -0.426823
v -0.433760 0.968400 -0.201654
v -0.760125 1.003154 0.152111
v 0.784515 1.003154 0.054318
v 0.514216 0.950118 0.086942
v 0.311024 0.867950 0.051208
v 0.035081 0.813800 0.136321
v -0.327426 0.879710 -0.005187
v -0.526833 0.967413 0.091112
v -0.161302 1.003154 -0.618956
v -0.170818 0.772339 0.516499
v -0.154946 0.724241 0.309885
v -0.154946 0.857506 0.054993
v -0.154946 1.003154 -0.426823
v -0.669570 1.082068 0.444401
v -0.563024 1.082068 0.573665
v -0.596383 1.067312 0.309885
v -0.890569 1.082068 0.364092
v -0.327426 0.974082 0.540306
v -0.327426 0.890255 0.309885
v 0.001723 0.784505 0.490269
v 0.035081 0.852969 0.309885
v 0.374201 0.987737 0.627872
v 0.374201 0.958623 0.309885
v 0.670806 1.077990 0.582004
v 0.549882 1.021613 0.305715
v 0.698759 1.082068 0.452740
v 0.857211 1.082068 0.293206
v -0.170818 0.851192 0.516499
v -0.154946 0.803315 0.309885
v 0.514216 1.039822 0.086942
v 0.784515 1.082068 0.054318
v 0.311024 0.958623 0.038372
v 0.035081 0.958623 -0.005187
v -0.327426 0.958623 -0.005187
v -0.154946 0.955824 -0.005187
v -0.526833 1.046327 0.091112
v -0.760125 1.082068 0.152111
v 0.035081 1.082068 -0.426823
v 0.005893 1.082068 -1.015663
v 0.411729 1.082068 -0.510219
v 0.278295 1.082068 -0.586174
v -0.327426 1.082068 -0.426823
v -0.360784 1.082068 -0.561156
v -0.154946 1.082068 -0.426823
v -0.161302 1.082068 -0.618956
v 0.466486 1.073904 -0.205823
v 0.882230 1.082068 -0.372615
v -0.433760 1.047313 -0.201654
v -0.878060 1.082068 -0.414313
vt 0.375000 0.250000
vt 0.625000 0.250000
vt 0.425687 0.250000
vt 0.504371 0.500000
vt 0.504371 0.250000
vt 0.590342 0.250000
vt 0.546628 0.500000
vt 0.546628 0.250000
vt 0.459201 0.500000
vt 0.459201 0.250000
vt 0.375000 0.336386
vt 0.625000 0.336386
vt 0.590342 0.336386
vt 0.546628 0.336386
vt 0.504371 0.336386
vt 0.459201 0.336386
vt 0.425687 0.336386
vt 0.375000 0.428185
vt 0.625000 0.428185
vt 0.590342 0.428185
vt 0.546628 0.428185
vt 0.504371 0.428185
vt 0.459201 0.428185
vt 0.425687 0.428185
vt 0.375000 0.375646
vt 0.625000 0.375646
vt 0.590342 0.375646
vt 0.546628 0.375646
vt 0.504371 0.375646
vt 0.459201 0.375646
vt 0.425687 0.375646
vt 0.480693 0.500000
vt 0.480693 0.250000
vt 0.480693 0.336386
vt 0.480693 0.375646
vt 0.480693 0.428185
vt 0.375000 0.250000
vt 0.425687 0.250000
vt 0.425687 0.336386
vt 0.375000 0.336386
vt 0.459201 0.250000
vt 0.459201 0.336386
vt 0.504371 0.336386
vt 0.504371 0.250000
vt 0.546628 0.250000
vt 0.546628 0.336386
vt 0.590342 0.336386
vt 0.590342 0.250000
vt 0.625000 0.250000
vt 0.625000 0.336386
vt 0.480693 0.250000
vt 0.480693 0.336386
vt 0.590342 0.375646
vt 0.625000 0.375646
vt 0.546628 0.375646
vt 0.504371 0.375646
vt 0.459201 0.375646
vt 0.480693 0.375646
vt 0.425687 0.375646
vt 0.375000 0.375646
vt 0.504371 0.500000
vt 0.504371 0.428185
vt 0.546628 0.428185
vt 0.546628 0.500000
vt 0.459201 0.500000
vt 0.459201 0.428185
vt 0.480693 0.428185
vt 0.480693 0.500000
vt 0.590342 0.428185
vt 0.625000 0.428185
vt 0.425687 0.428185
vt 0.375000 0.428185
vt 0.375000 0.250000
vt 0.425687 0.250000
vt 0.375000 0.336386
vt 0.459201 0.250000
vt 0.504371 0.250000
vt 0.546628 0.250000
vt 0.590342 0.250000
vt 0.625000 0.250000
vt 0.625000 0.336386
vt 0.480693 0.250000
vt 0.625000 0.375646
vt 0.375000 0.375646
vt 0.546628 0.428185
vt 0.546628 0.500000
vt 0.504371 0.500000
vt 0.459201 0.500000
vt 0.459201 0.428185
vt 0.480693 0.500000
vt 0.625000 0.428185
vt 0.590342 0.428185
vt 0.425687 0.428185
vt 0.375000 0.428185
vn 0.051821 0.995367 -0.080993
vn 0.421486 0.886857 -0.189299
vn 0.323797 0.945291 -0.039751
vn 0.082869 0.996238 -0.025346
vn 0.482986 0.849801 -0.211097
vn 0.444061 0.895675 0.024015
vn -0.236425 0.956931 0.168484
vn -0.282008 0.958097 0.050222
vn -0.362831 0.931788 -0.011154
vn -0.320667 0.944860 0.066428
vn -0.274383 0.961620 -0.000900
vn -0.301151 0.949614 -0.086837
vn -0.245834 0.958384 -0.145143
vn -0.187861 0.981855 0.025858
vn 0.362349 0.922453 -0.133357
vn 0.149646 0.971074 0.186069
vn -0.213575 0.973523 0.081482
vn -0.097559 0.993691 0.055324
vn -0.159927 0.966023 0.203034
vn -0.051897 0.962650 0.265728
vn 0.268558 0.931029 0.247108
vn 0.020966 0.948632 0.315687
vn 0.247301 0.967241 0.057329
vn 0.100484 0.994934 -0.002880
vn 0.000000 1.000000 0.000000
vn 0.005242 0.986178 0.165608
vn -0.031505 0.982981 0.180986
vn 0.000000 1.000000 0.000000
vn 0.000000 1.000000 0.000000
vn 0.049910 0.979010 0.197605
vn 0.000000 0.984954 0.172815
vn 0.000000 1.000000 0.000000
vn -0.249271 0.964156 0.090927
vn -0.060775 0.997225 0.043002
vn 0.210031 0.974511 0.078834
vn 0.103892 0.994587 -0.001864
vn -0.051821 -0.995367 0.080993
vn -0.082869 -0.996238 0.025346
vn -0.324108 -0.945197 0.039440
vn -0.422321 -0.886648 0.188416
vn -0.447825 -0.893955 -0.017245
vn -0.483409 -0.849775 0.210235
vn 0.153635 -0.984214 -0.087861
vn 0.347072 -0.937777 -0.010766
vn 0.370322 -0.895625 0.246410
vn 0.170814 -0.961177 0.216705
vn 0.380042 -0.924873 0.013306
vn 0.276381 -0.958822 -0.065382
vn 0.361480 -0.905925 0.220528
vn 0.398352 -0.886185 0.236625
vn -0.258649 -0.951516 -0.166484
vn -0.418537 -0.888966 0.185921
vn 0.263372 -0.952194 -0.154795
vn 0.128468 -0.987140 -0.095133
vn 0.151300 -0.943885 -0.293579
vn 0.023556 -0.934079 -0.356288
vn -0.247908 -0.936739 -0.247105
vn -0.079903 -0.941020 -0.328780
vn -0.247301 -0.967241 -0.057328
vn -0.100484 -0.994934 0.002880
vn 0.000000 -1.000000 -0.000000
vn 0.000000 -1.000000 -0.000000
vn 0.047896 -0.976656 -0.209401
vn -0.006125 -0.981038 -0.193719
vn 0.000000 -1.000000 0.000000
vn 0.000000 -1.000000 0.000000
vn -0.019374 -0.981336 -0.191322
vn -0.050717 -0.978027 -0.202215
vn 0.267320 -0.957248 -0.110524
vn 0.067020 -0.995869 -0.061261
vn -0.210030 -0.974511 -0.078833
vn -0.103892 -0.994587 0.001864
vn -0.771656 0.000000 0.636040
vn -0.771656 0.000000 0.636040
vn -0.771656 0.000000 0.636040
vn -0.771656 0.000000 0.636040
vn -0.341537 0.000000 0.939868
vn -0.341537 0.000000 0.939868
vn -0.341537 0.000000 0.939868
vn -0.341537 0.000000 0.939868
vn 0.140191 -0.000000 0.990124
vn 0.145898 -0.000000 0.989300
vn 0.142545 -0.000000 0.989788
vn 0.140191 -0.000000 0.990125
vn -0.190530 -0.000000 0.981681
vn -0.192825 -0.000000 0.981233
vn -0.069364 -0.000000 0.997591
vn -0.205946 -0.000000 0.978563
vn 0.977409 0.000000 0.211356
vn 0.977409 0.000000 0.211356
vn 0.977409 0.000000 0.211356
vn 0.977409 0.000000 0.211356
vn 0.709509 0.000000 0.704696
vn 0.709509 0.000000 0.704696
vn 0.709509 0.000000 0.704696
vn 0.709509 0.000000 0.704696
vn 0.152827 -0.000000 0.988253
vn 0.152827 -0.000000 0.988253
vn 0.150294 -0.000000 0.988641
vn 0.150294 -0.000000 0.988641
vn 0.956684 0.000000 -0.291129
vn 0.999295 0.000000 0.037549
vn 0.999295 0.000000 0.037549
vn 0.956684 0.000000 -0.291129
vn -0.851669 0.000000 -0.524079
vn -0.851669 0.000000 -0.524079
vn -0.851669 0.000000 -0.524079
vn -0.851669 0.000000 -0.524079
vn 0.494702 0.000000 -0.869063
vn 0.779754 0.000000 -0.626087
vn 0.779754 0.000000 -0.626087
vn 0.494702 0.000000 -0.869063
vn 0.844470 0.000000 -0.535603
vn 0.844470 0.000000 -0.535603
vn -0.970524 0.000000 0.241007
vn -0.970524 0.000000 0.241007
vn -0.970524 0.000000 0.241007
vn -0.970524 0.000000 0.241007
vn -0.278305 0.000000 -0.960493
vn -0.278305 0.000000 -0.960493
vn -0.278305 0.000000 -0.960493
vn -0.278305 0.000000 -0.960493
vn 0.974794 0.000000 0.223107
vn 0.974794 0.000000 0.223107
vn -0.372342 0.000000 -0.928095
vn -0.372342 0.000000 -0.928095
vn -0.372342 0.000000 -0.928096
vn -0.372342 0.000000 -0.928096
vn 0.984202 0.000000 -0.177047
vn 0.984202 0.000000 -0.177047
vn 0.984202 0.000000 -0.177047
vn 0.984202 0.000000 -0.177047
vn -0.904241 0.000000 -0.427022
vn -0.904241 0.000000 -0.427022
vn -0.904241 0.000000 -0.427022
vn -0.904241 0.000000 -0.427022
vn 0.431734 0.000000 -0.902001
vn 0.431734 0.000000 -0.902001
vn 0.431734 0.000000 -0.902001
vn 0.431734 0.000000 -0.902001
vn -0.979005 0.000000 0.203837
vn -0.979005 0.000000 0.203837
vn -0.979005 0.000000 0.203837
vn -0.979005 0.000000 0.203837
vn -0.921502 0.000000 -0.388373
vn -0.921502 0.000000 -0.388373
vn -0.921502 0.000000 -0.388373
vn -0.921502 0.000000 -0.388373
s 1
g pCube1
usemtl initialShadingGroup
f 37/73/1 38/74/2 39/17/3 40/75/4
f 39/17/3 38/74/2 41/76/5 42/16/6
f 44/15/7 43/77/8 45/78/9 46/14/10
f 48/13/11 47/79/12 49/80/13 50/81/14
f 46/14/10 45/78/9 47/79/12 48/13/11
f 42/16/6 41/76/5 51/82/15 52/34/16
f 53/27/17 48/13/11 50/81/14 54/83/18
f 55/28/19 46/14/10 48/13/11 53/27/17
f 56/29/20 44/15/7 46/14/10 55/28/19
f 57/30/21 42/16/6 52/34/16 58/35/22
f 59/31/23 39/17/3 42/16/6 57/30/21
f 40/75/4 39/17/3 59/31/23 60/84/24
f 62/87/25 61/22/26 63/85/27 64/86/28
f 66/88/29 65/89/30 67/36/31 68/90/32
f 69/92/33 53/27/17 54/83/18 70/91/34
f 63/85/27 55/28/19 53/27/17 69/92/33
f 61/22/26 56/29/20 55/28/19 63/85/27
f 65/89/30 57/30/21 58/35/22 67/36/31
f 71/93/35 59/31/23 57/30/21 65/89/30
f 60/84/24 59/31/23 71/93/35 72/94/36
f 52/34/16 51/82/15 43/77/8 44/15/7
f 58/35/22 52/34/16 44/15/7 56/29/20
f 67/36/31 58/35/22 56/29/20 61/22/26
f 68/90/32 67/36/31 61/22/26 62/87/25
s 4
f 1/37/37 11/40/38 17/39/39 3/38/40
f 17/39/39 16/42/41 10/41/42 3/38/40
f 15/43/43 14/46/44 8/45/45 5/44/46
f 13/47/47 12/50/48 2/49/49 6/48/50
f 14/46/44 13/47/47 6/48/50 8/45/45
f 16/42/41 34/52/51 33/51/52 10/41/42
f 27/53/53 26/54/54 12/50/48 13/47/47
f 28/55/55 27/53/53 13/47/47 14/46/44
f 29/56/56 28/55/55 14/46/44 15/43/43
f 30/57/57 35/58/58 34/52/51 16/42/41
f 31/59/59 30/57/57 16/42/41 17/39/39
f 11/40/38 25/60/60 31/59/59 17/39/39
f 4/61/61 7/64/62 21/63/63 22/62/64
f 9/65/65 32/68/66 36/67/67 23/66/68
f 20/69/69 19/70/70 26/54/54 27/53/53
f 21/63/63 20/69/69 27/53/53 28/55/55
f 22/62/64 21/63/63 28/55/55 29/56/56
f 23/66/68 36/67/67 35/58/58 30/57/57
f 24/71/71 23/66/68 30/57/57 31/59/59
f 25/60/60 18/72/72 24/71/71 31/59/59
f 34/52/51 15/43/43 5/44/46 33/51/52
f 35/58/58 29/56/56 15/43/43 34/52/51
f 36/67/67 22/62/64 29/56/56 35/58/58
f 32/68/66 4/61/61 22/62/64 36/67/67
s off
f 1/1/73 3/3/74 38/74/75 37/73/76
f 11/11/77 1/1/78 37/73/79 40/75/80
s 7
f 3/3/81 10/10/82 41/76/83 38/74/84
f 5/5/85 8/8/86 45/78/87 43/77/88
s off
f 6/6/89 2/2/90 49/80/91 47/79/92
f 2/2/93 12/12/94 50/81/95 49/80/96
s 7
f 8/8/86 6/6/97 47/79/98 45/78/87
f 10/10/82 33/33/99 51/82/100 41/76/83
s 9
f 12/12/101 26/26/102 54/83/103 50/81/104
s off
f 25/25/105 11/11/106 40/75/107 60/84/108
s 10
f 21/21/109 7/7/110 64/86/111 63/85/112
f 7/7/110 4/4/113 62/87/114 64/86/111
s off
f 9/9/115 23/23/116 65/89/117 66/88/118
f 32/32/119 9/9/120 66/88/121 68/90/122
s 9
f 26/26/102 19/19/123 70/91/124 54/83/103
s off
f 19/19/125 20/20/126 69/92/127 70/91/128
f 20/20/129 21/21/130 63/85/131 69/92/132
f 23/23/133 24/24/134 71/93/135 65/89/136
f 24/24/137 18/18/138 72/94/139 71/93/140
f 18/18/141 25/25/142 60/84/143 72/94/144
s 7
f 33/33/99 5/5/85 43/77/88 51/82/100
s off
f 4/4/145 32/32/146 68/90/147 62/87/148
