# This file uses centimeters as units for non-parametric coordinates.

mtllib leaf.mtl
g default
v -1.124470 -0.086241 -1.434541
v -1.024609 -0.095631 -1.398285
v -0.928124 -0.105366 -1.363521
v -0.800232 -0.111939 -1.325848
v -0.610667 -0.112339 -1.289948
v -0.409174 -0.111594 -1.265060
v -0.221969 -0.112296 -1.243013
v -0.049795 -0.114565 -1.233861
v 0.120918 -0.116994 -1.227673
v 0.282501 -0.122808 -1.218844
v 0.391678 -0.135642 -1.219650
v -1.156525 -0.089336 -1.449568
v -1.061230 -0.099224 -1.421888
v -0.908731 -0.103256 -1.368501
v -0.795339 -0.111447 -1.365566
v -0.605775 -0.111846 -1.329665
v -0.404282 -0.111102 -1.304777
v -0.217077 -0.111803 -1.282730
v -0.047235 -0.114638 -1.273725
v 0.114200 -0.125709 -1.272300
v 0.271049 -0.121953 -1.284289
v 0.498954 -0.130159 -1.230088
v -1.214573 -0.095080 -1.473960
v -1.090002 -0.102007 -1.440654
v -0.945490 -0.106862 -1.391946
v -0.790445 -0.113612 -1.405293
v -0.602737 -0.112170 -1.370741
v -0.399388 -0.114207 -1.344509
v -0.212183 -0.115155 -1.322463
v -0.049667 -0.125104 -1.313688
v 0.095617 -0.138406 -1.318112
v 0.240449 -0.126271 -1.313228
v 0.567524 -0.109769 -1.258260
v -1.296952 -0.103315 -1.509257
v -1.146062 -0.107523 -1.458799
v -0.973937 -0.109612 -1.410651
v -0.780768 -0.117878 -1.421918
v -0.593435 -0.115612 -1.389513
v -0.397278 -0.126262 -1.385075
v -0.207796 -0.126841 -1.362261
v -0.058280 -0.135035 -1.352662
v 0.074786 -0.142020 -1.356232
v 0.229971 -0.127994 -1.344842
v 0.709582 -0.096643 -1.245481
v -1.346299 -0.108195 -1.535250
v -1.162571 -0.109062 -1.474482
v -0.962342 -0.108374 -1.434614
v -0.770914 -0.120917 -1.433036
v -0.582326 -0.119429 -1.403424
v -0.391429 -0.127955 -1.404476
v -0.202595 -0.128488 -1.381289
v -0.070402 -0.137228 -1.390911
v 0.051648 -0.144566 -1.391078
v 0.219787 -0.128910 -1.362908
v 0.721178 -0.095438 -1.276678
v -1.416614 -0.115200 -1.566027
v -1.157531 -0.108552 -1.513562
v -0.951863 -0.107259 -1.461201
v -0.770530 -0.128247 -1.467012
v -0.577461 -0.127023 -1.442804
v -0.383926 -0.127084 -1.419388
v -0.198147 -0.127919 -1.395458
v -0.071413 -0.137200 -1.403703
v 0.053020 -0.144216 -1.386173
v 0.192920 -0.130723 -1.394450
v 0.617829 -0.105765 -1.309792
v -1.470239 -0.120533 -1.597259
v -1.144667 -0.107097 -1.518777
v -0.946971 -0.106767 -1.500918
v -0.766009 -0.128838 -1.506288
v -0.572568 -0.126531 -1.482521
v -0.379165 -0.126603 -1.458698
v -0.197520 -0.127849 -1.434037
v -0.066227 -0.136509 -1.407578
v 0.063745 -0.142891 -1.373515
v 0.171696 -0.131734 -1.418812
v 0.554408 -0.112071 -1.339104
v -1.455013 -0.118831 -1.600199
v -1.133130 -0.105803 -1.529735
v -0.942078 -0.106275 -1.540635
v -0.763249 -0.127636 -1.542450
v -0.567676 -0.126039 -1.522238
v -0.374273 -0.126110 -1.498415
v -0.196213 -0.127713 -1.473172
v -0.071684 -0.136157 -1.443502
v 0.052195 -0.143800 -1.408021
v 0.162165 -0.132285 -1.433125
v 0.533621 -0.114045 -1.355837
v -1.455872 -0.118744 -1.603546
v -1.128199 -0.105307 -1.569530
v -0.937186 -0.105782 -1.580352
v -0.760138 -0.118786 -1.579172
v -0.562787 -0.117338 -1.561922
v -0.369385 -0.117409 -1.538099
v -0.193326 -0.119488 -1.512243
v -0.072798 -0.127377 -1.481574
v 0.048480 -0.136096 -1.443664
v 0.164096 -0.131775 -1.450802
v 0.496591 -0.117719 -1.387955
v -1.367628 -0.109792 -1.621232
v -1.121223 -0.104626 -1.613458
v -0.932293 -0.105290 -1.620069
v -0.755251 -0.107560 -1.618845
v -0.557900 -0.106997 -1.601599
v -0.364548 -0.107074 -1.577744
v -0.189113 -0.109035 -1.551501
v -0.069698 -0.116677 -1.520304
v 0.063305 -0.122411 -1.512998
v 0.185330 -0.129555 -1.471656
v 0.453319 -0.122006 -1.417450
v -1.295535 -0.102422 -1.631114
v -1.114595 -0.103976 -1.656685
v -0.927401 -0.104797 -1.659786
v -0.750359 -0.106616 -1.658560
v -0.553008 -0.106323 -1.641315
v -0.359671 -0.106401 -1.617451
v -0.186653 -0.108526 -1.595770
v -0.067413 -0.116062 -1.578229
v 0.067678 -0.121969 -1.552393
v 0.213011 -0.126801 -1.516112
v 0.398141 -0.127486 -1.446641
vt 0.000000 0.000000
vt 0.100000 0.000000
vt 0.200000 0.000000
vt 0.300000 0.000000
vt 0.400000 0.000000
vt 0.500000 0.000000
vt 0.600000 0.000000
vt 0.700000 0.000000
vt 0.800000 0.000000
vt 0.900000 0.000000
vt 1.000000 0.000000
vt 0.000000 0.100000
vt 0.100000 0.100000
vt 0.200000 0.100000
vt 0.300000 0.100000
vt 0.400000 0.100000
vt 0.500000 0.100000
vt 0.600000 0.100000
vt 0.700000 0.100000
vt 0.800000 0.100000
vt 0.900000 0.100000
vt 1.000000 0.100000
vt 0.000000 0.200000
vt 0.100000 0.200000
vt 0.200000 0.200000
vt 0.300000 0.200000
vt 0.400000 0.200000
vt 0.500000 0.200000
vt 0.600000 0.200000
vt 0.700000 0.200000
vt 0.800000 0.200000
vt 0.900000 0.200000
vt 1.000000 0.200000
vt 0.000000 0.300000
vt 0.100000 0.300000
vt 0.200000 0.300000
vt 0.300000 0.300000
vt 0.400000 0.300000
vt 0.500000 0.300000
vt 0.600000 0.300000
vt 0.700000 0.300000
vt 0.800000 0.300000
vt 0.900000 0.300000
vt 1.000000 0.300000
vt 0.000000 0.400000
vt 0.100000 0.400000
vt 0.200000 0.400000
vt 0.300000 0.400000
vt 0.400000 0.400000
vt 0.500000 0.400000
vt 0.600000 0.400000
vt 0.700000 0.400000
vt 0.800000 0.400000
vt 0.900000 0.400000
vt 1.000000 0.400000
vt 0.000000 0.500000
vt 0.100000 0.500000
vt 0.200000 0.500000
vt 0.300000 0.500000
vt 0.400000 0.500000
vt 0.500000 0.500000
vt 0.600000 0.500000
vt 0.700000 0.500000
vt 0.800000 0.500000
vt 0.900000 0.500000
vt 1.000000 0.500000
vt 0.000000 0.600000
vt 0.100000 0.600000
vt 0.200000 0.600000
vt 0.300000 0.600000
vt 0.400000 0.600000
vt 0.500000 0.600000
vt 0.600000 0.600000
vt 0.700000 0.600000
vt 0.800000 0.600000
vt 0.900000 0.600000
vt 1.000000 0.600000
vt 0.000000 0.700000
vt 0.100000 0.700000
vt 0.200000 0.700000
vt 0.300000 0.700000
vt 0.400000 0.700000
vt 0.500000 0.700000
vt 0.600000 0.700000
vt 0.700000 0.700000
vt 0.800000 0.700000
vt 0.900000 0.700000
vt 1.000000 0.700000
vt 0.000000 0.800000
vt 0.100000 0.800000
vt 0.200000 0.800000
vt 0.300000 0.800000
vt 0.400000 0.800000
vt 0.500000 0.800000
vt 0.600000 0.800000
vt 0.700000 0.800000
vt 0.800000 0.800000
vt 0.900000 0.800000
vt 1.000000 0.800000
vt 0.000000 0.900000
vt 0.100000 0.900000
vt 0.200000 0.900000
vt 0.300000 0.900000
vt 0.400000 0.900000
vt 0.500000 0.900000
vt 0.600000 0.900000
vt 0.700000 0.900000
vt 0.800000 0.900000
vt 0.900000 0.900000
vt 1.000000 0.900000
vt 0.000000 1.000000
vt 0.100000 1.000000
vt 0.200000 1.000000
vt 0.300000 1.000000
vt 0.400000 1.000000
vt 0.500000 1.000000
vt 0.600000 1.000000
vt 0.700000 1.000000
vt 0.800000 1.000000
vt 0.900000 1.000000
vt 1.000000 1.000000
vn 0.274817 0.737974 -0.616336
vn 0.115151 0.979171 -0.167228
vn 0.201660 0.859332 -0.469980
vn 0.233022 0.759240 -0.607663
vn 0.058163 0.997605 0.037431
vn 0.060231 0.997303 -0.041938
vn 0.007068 0.999701 0.023391
vn 0.017664 0.999421 -0.029090
vn -0.003021 0.999923 0.012023
vn 0.001403 0.999946 -0.010264
vn -0.001613 0.999924 0.012197
vn 0.004682 0.999712 -0.023544
vn 0.007355 0.999921 0.010168
vn 0.017209 0.998717 -0.047619
vn 0.025713 0.998965 -0.037515
vn 0.043854 0.990298 -0.131856
vn 0.025818 0.995587 -0.090220
vn 0.024533 0.988177 -0.151341
vn 0.017899 0.999840 -0.000724
vn -0.033403 0.997157 0.067550
vn 0.040585 0.990156 0.133955
vn -0.015376 0.981795 0.189322
vn 0.222696 0.741199 -0.633270
vn 0.268065 0.526816 -0.806602
vn 0.079250 0.971380 -0.223922
vn 0.021177 0.991011 -0.132094
vn 0.018038 0.994502 -0.103148
vn 0.025776 0.987503 -0.155475
vn 0.040010 0.979975 -0.195061
vn 0.066415 0.968177 -0.241293
vn 0.002742 0.983636 -0.180145
vn -0.070749 0.996734 0.038940
vn -0.069845 0.988575 0.133574
vn 0.114387 0.933748 -0.339162
vn 0.144807 0.906192 -0.397301
vn 0.067609 0.970825 -0.230058
vn 0.038181 0.989606 -0.138645
vn 0.040978 0.974647 -0.219962
vn 0.038405 0.977497 -0.207422
vn 0.048084 0.975764 -0.213475
vn 0.064463 0.982784 -0.173150
vn -0.011461 0.996645 -0.081034
vn -0.074152 0.997182 0.011390
vn -0.068570 0.997397 0.022295
vn 0.021368 0.997244 -0.071044
vn 0.017996 0.993319 -0.113986
vn 0.029590 0.999416 -0.017078
vn 0.050392 0.988069 -0.145536
vn 0.031940 0.984428 -0.172865
vn 0.022501 0.996282 -0.083163
vn 0.034462 0.998467 -0.043307
vn 0.059502 0.996664 -0.055854
vn -0.024579 0.999174 -0.032348
vn -0.062941 0.997198 -0.040431
vn -0.062728 0.997925 -0.014518
vn -0.002767 0.999260 -0.038371
vn -0.006293 0.995502 -0.094532
vn 0.044546 0.998931 -0.012339
vn 0.055571 0.996879 -0.056068
vn 0.008256 0.997432 -0.071149
vn 0.007104 0.999894 -0.012725
vn 0.022440 0.999498 0.022347
vn 0.061633 0.996145 0.062422
vn -0.103058 0.980901 0.164964
vn -0.048292 0.996918 -0.061824
vn -0.044282 0.994738 -0.092388
vn -0.016942 0.999761 0.013806
vn -0.046326 0.998392 0.032661
vn 0.068409 0.997304 0.026536
vn 0.051565 0.998509 0.017936
vn -0.005819 0.999926 0.010720
vn 0.002169 0.999946 0.010175
vn 0.027347 0.999591 0.008400
vn 0.062168 0.998034 0.007997
vn 0.001311 0.999721 0.023586
vn -0.060046 0.997747 -0.029918
vn -0.040619 0.996956 -0.066555
vn -0.021380 0.999154 0.035135
vn -0.047834 0.998309 0.033037
vn 0.057638 0.997464 0.041749
vn 0.038444 0.993314 0.108854
vn -0.017381 0.992443 0.121471
vn -0.010651 0.993400 0.114203
vn 0.008649 0.992723 0.120111
vn 0.032857 0.992991 0.113530
vn -0.010789 0.998989 0.043631
vn -0.046096 0.998776 0.017929
vn -0.040545 0.998425 -0.038770
vn -0.019861 0.999039 0.039075
vn -0.040903 0.998032 0.047537
vn 0.038191 0.996629 0.072616
vn 0.013483 0.980817 0.194461
vn -0.027999 0.971276 0.236304
vn -0.025752 0.972646 0.230859
vn -0.013451 0.971653 0.236030
vn 0.010255 0.974215 0.225389
vn -0.010239 0.980653 0.195485
vn -0.027143 0.998071 0.055835
vn -0.036417 0.998761 -0.033928
vn -0.007984 0.997898 0.064308
vn -0.035527 0.994347 0.100055
vn 0.017197 0.998131 0.058634
vn 0.001030 0.993592 0.113023
vn -0.015522 0.991078 0.132379
vn -0.011699 0.991467 0.129833
vn 0.013709 0.993162 0.115934
vn 0.022831 0.987441 0.156330
vn 0.025828 0.995508 0.091086
vn -0.008795 0.999145 0.040388
vn -0.024304 0.999270 -0.029474
vn 0.003197 0.999315 0.036877
vn -0.002280 0.989281 0.146006
vn 0.008998 0.999802 0.017741
vn 0.001460 0.999804 0.019741
vn -0.002731 0.999830 0.018240
vn 0.003835 0.999867 0.015858
vn 0.031581 0.999397 0.014435
vn 0.052358 0.998534 0.013755
vn 0.037811 0.998948 0.025966
vn 0.018712 0.999575 0.022340
vn -0.005616 0.999375 -0.034886
s 1
g pPlane2
usemtl lambert2SG
f 1/1/1 2/2/2 13/13/3 12/12/4
f 2/2/2 3/3/5 14/14/6 13/13/3
f 3/3/5 4/4/7 15/15/8 14/14/6
f 4/4/7 5/5/9 16/16/10 15/15/8
f 5/5/9 6/6/11 17/17/12 16/16/10
f 6/6/11 7/7/13 18/18/14 17/17/12
f 7/7/13 8/8/15 19/19/16 18/18/14
f 8/8/15 9/9/17 20/20/18 19/19/16
f 9/9/17 10/10/19 21/21/20 20/20/18
f 10/10/19 11/11/21 22/22/22 21/21/20
f 12/12/4 13/13/3 24/24/23 23/23/24
f 13/13/3 14/14/6 25/25/25 24/24/23
f 14/14/6 15/15/8 26/26/26 25/25/25
f 15/15/8 16/16/10 27/27/27 26/26/26
f 16/16/10 17/17/12 28/28/28 27/27/27
f 17/17/12 18/18/14 29/29/29 28/28/28
f 18/18/14 19/19/16 30/30/30 29/29/29
f 19/19/16 20/20/18 31/31/31 30/30/30
f 20/20/18 21/21/20 32/32/32 31/31/31
f 21/21/20 22/22/22 33/33/33 32/32/32
f 23/23/24 24/24/23 35/35/34 34/34/35
f 24/24/23 25/25/25 36/36/36 35/35/34
f 25/25/25 26/26/26 37/37/37 36/36/36
f 26/26/26 27/27/27 38/38/38 37/37/37
f 27/27/27 28/28/28 39/39/39 38/38/38
f 28/28/28 29/29/29 40/40/40 39/39/39
f 29/29/29 30/30/30 41/41/41 40/40/40
f 30/30/30 31/31/31 42/42/42 41/41/41
f 31/31/31 32/32/32 43/43/43 42/42/42
f 32/32/32 33/33/33 44/44/44 43/43/43
f 34/34/35 35/35/34 46/46/45 45/45/46
f 35/35/34 36/36/36 47/47/47 46/46/45
f 36/36/36 37/37/37 48/48/48 47/47/47
f 37/37/37 38/38/38 49/49/49 48/48/48
f 38/38/38 39/39/39 50/50/50 49/49/49
f 39/39/39 40/40/40 51/51/51 50/50/50
f 40/40/40 41/41/41 52/52/52 51/51/51
f 41/41/41 42/42/42 53/53/53 52/52/52
f 42/42/42 43/43/43 54/54/54 53/53/53
f 43/43/43 44/44/44 55/55/55 54/54/54
f 45/45/46 46/46/45 57/57/56 56/56/57
f 46/46/45 47/47/47 58/58/58 57/57/56
f 47/47/47 48/48/48 59/59/59 58/58/58
f 48/48/48 49/49/49 60/60/60 59/59/59
f 49/49/49 50/50/50 61/61/61 60/60/60
f 50/50/50 51/51/51 62/62/62 61/61/61
f 51/51/51 52/52/52 63/63/63 62/62/62
f 52/52/52 53/53/53 64/64/64 63/63/63
f 53/53/53 54/54/54 65/65/65 64/64/64
f 54/54/54 55/55/55 66/66/66 65/65/65
f 56/56/57 57/57/56 68/68/67 67/67/68
f 57/57/56 58/58/58 69/69/69 68/68/67
f 58/58/58 59/59/59 70/70/70 69/69/69
f 59/59/59 60/60/60 71/71/71 70/70/70
f 60/60/60 61/61/61 72/72/72 71/71/71
f 61/61/61 62/62/62 73/73/73 72/72/72
f 62/62/62 63/63/63 74/74/74 73/73/73
f 63/63/63 64/64/64 75/75/75 74/74/74
f 64/64/64 65/65/65 76/76/76 75/75/75
f 65/65/65 66/66/66 77/77/77 76/76/76
f 67/67/68 68/68/67 79/79/78 78/78/79
f 68/68/67 69/69/69 80/80/80 79/79/78
f 69/69/69 70/70/70 81/81/81 80/80/80
f 70/70/70 71/71/71 82/82/82 81/81/81
f 71/71/71 72/72/72 83/83/83 82/82/82
f 72/72/72 73/73/73 84/84/84 83/83/83
f 73/73/73 74/74/74 85/85/85 84/84/84
f 74/74/74 75/75/75 86/86/86 85/85/85
f 75/75/75 76/76/76 87/87/87 86/86/86
f 76/76/76 77/77/77 88/88/88 87/87/87
f 78/78/79 79/79/78 90/90/89 89/89/90
f 79/79/78 80/80/80 91/91/91 90/90/89
f 80/80/80 81/81/81 92/92/92 91/91/91
f 81/81/81 82/82/82 93/93/93 92/92/92
f 82/82/82 83/83/83 94/94/94 93/93/93
f 83/83/83 84/84/84 95/95/95 94/94/94
f 84/84/84 85/85/85 96/96/96 95/95/95
f 85/85/85 86/86/86 97/97/97 96/96/96
f 86/86/86 87/87/87 98/98/98 97/97/97
f 87/87/87 88/88/88 99/99/99 98/98/98
f 89/89/90 90/90/89 101/101/100 100/100/101
f 90/90/89 91/91/91 102/102/102 101/101/100
f 91/91/91 92/92/92 103/103/103 102/102/102
f 92/92/92 93/93/93 104/104/104 103/103/103
f 93/93/93 94/94/94 105/105/105 104/104/104
f 94/94/94 95/95/95 106/106/106 105/105/105
f 95/95/95 96/96/96 107/107/107 106/106/106
f 96/96/96 97/97/97 108/108/108 107/107/107
f 97/97/97 98/98/98 109/109/109 108/108/108
f 98/98/98 99/99/99 110/110/110 109/109/109
f 100/100/101 101/101/100 112/112/111 111/111/112
f 101/101/100 102/102/102 113/113/113 112/112/111
f 102/102/102 103/103/103 114/114/114 113/113/113
f 103/103/103 104/104/104 115/115/115 114/114/114
f 104/104/104 105/105/105 116/116/116 115/115/115
f 105/105/105 106/106/106 117/117/117 116/116/116
f 106/106/106 107/107/107 118/118/118 117/117/117
f 107/107/107 108/108/108 119/119/119 118/118/118
f 108/108/108 109/109/109 120/120/120 119/119/119
f 109/109/109 110/110/110 121/121/121 120/120/120
